<svg width="87" height="28" viewBox="0 0 87 28" fill="none" xmlns="http://www.w3.org/2000/svg">
<path d="M13.4 26.576C10.808 26.576 8.54001 26.108 6.59601 25.172C4.65201 24.212 3.14001 22.892 2.06001 21.212C1.00401 19.508 0.476013 17.54 0.476013 15.308C0.476013 13.1 0.860013 11.072 1.62801 9.224C2.42001 7.376 3.52401 5.78 4.94001 4.436C6.35601 3.092 8.03601 2.06 9.98001 1.34C11.924 0.595999 14.06 0.223999 16.388 0.223999C18.812 0.223999 20.96 0.655999 22.832 1.52C24.704 2.384 26.096 3.632 27.008 5.264L20.888 10.052C20.36 9.116 19.676 8.396 18.836 7.892C17.996 7.364 17 7.1 15.848 7.1C14.84 7.1 13.916 7.292 13.076 7.676C12.26 8.036 11.552 8.564 10.952 9.26C10.352 9.932 9.88401 10.736 9.54801 11.672C9.21201 12.608 9.04401 13.64 9.04401 14.768C9.04401 15.752 9.26001 16.616 9.69201 17.36C10.124 18.104 10.724 18.68 11.492 19.088C12.284 19.496 13.196 19.7 14.228 19.7C15.212 19.7 16.172 19.472 17.108 19.016C18.068 18.56 18.98 17.816 19.844 16.784L24.848 21.572C23.312 23.444 21.596 24.752 19.7 25.496C17.828 26.216 15.728 26.576 13.4 26.576ZM42.0768 26L39.0528 0.799998H47.4408L49.8528 22.076H45.4608L56.5488 0.799998H64.3608L66.4848 22.076H62.3448L73.3968 0.799998H81.7488L68.6448 26H59.5368L57.6288 8.576H60.2208L51.1848 26H42.0768Z" fill="#131313"/>
<path d="M30.4037 19.7516C30.4149 19.9925 30.1642 20.1442 29.9623 20.0029C29.2214 19.4987 28.9006 18.643 28.4454 17.8907C27.5392 19.1258 26.8328 20.3325 26.7385 21.6672C26.547 24.3788 28.3259 26.58 31.0375 26.7715C33.749 26.963 35.9602 25.0436 36.1517 22.332C36.3918 18.932 32.8789 18.0909 33.2247 13.7947C31.7202 14.7051 30.2117 16.8718 30.4037 19.7516Z" fill="#59B4D0"/>
<path d="M31.0176 27.0524C28.1656 26.851 26.2501 24.5837 26.4575 21.6473C26.5617 20.1721 27.3725 18.888 28.2175 17.7193C28.2796 17.639 28.3669 17.6028 28.4512 17.6087C28.5495 17.6157 28.6308 17.6638 28.6821 17.738C28.7966 17.9155 28.8961 18.1061 28.9956 18.2967C29.3082 18.8694 29.6086 19.4131 30.1207 19.7599C29.9186 16.8228 31.4652 14.5176 33.073 13.544C33.1612 13.4937 33.2746 13.4876 33.369 13.5507C33.4644 13.5998 33.5136 13.7022 33.5057 13.8146C33.3238 15.9902 34.1948 17.2519 35.0277 18.4544C35.7841 19.5386 36.5527 20.6518 36.4326 22.3518C36.2292 25.232 33.8978 27.2559 31.0176 27.0524ZM28.4227 18.4115C27.7171 19.4066 27.1038 20.4928 27.0195 21.687C26.8359 24.2862 28.5284 26.3119 31.0573 26.4905C33.6143 26.6711 35.6901 24.8692 35.8707 22.3121C35.9768 20.8088 35.3228 19.8731 34.5673 18.7749C33.7857 17.6466 32.9147 16.3849 32.9171 14.3519C31.6314 15.3624 30.5201 17.303 30.6876 19.7293C30.6998 19.9561 30.5866 20.1599 30.396 20.2594C30.2055 20.3589 29.9807 20.343 29.806 20.2177C29.1865 19.7927 28.8498 19.1618 28.5111 18.559C28.472 18.5139 28.4468 18.4697 28.4227 18.4115Z" fill="#50A6C0"/>
<path d="M34.2467 24.3154C34.792 23.5915 35.1375 22.6981 35.2079 21.7006L34.2467 24.3154Z" fill="#FF793B"/>
<path d="M33.3201 25.2383C33.4244 25.161 33.5438 25.0706 33.635 24.9782L33.3201 25.2383Z" fill="#FF793B"/>
<path d="M33.3003 25.5193C33.216 25.5133 33.1477 25.4803 33.0965 25.406C33.0061 25.2867 33.033 25.1051 33.1524 25.0146C33.2426 24.9363 33.361 24.8599 33.4372 24.7806C33.5435 24.6752 33.7271 24.674 33.8326 24.7803C33.938 24.8866 33.9392 25.0702 33.8329 25.1757C33.7266 25.2811 33.5922 25.3846 33.4879 25.4619C33.4287 25.5001 33.3705 25.5242 33.3003 25.5193Z" fill="#50A6C0"/>
<path d="M34.2268 24.5964C34.1706 24.5924 34.1154 24.5744 34.0752 24.5433C33.9548 24.4501 33.9245 24.2785 34.0187 24.144C34.548 23.4471 34.8624 22.5939 34.9269 21.6807C34.9378 21.5262 35.085 20.8141 35.2395 20.825C35.394 20.836 35.4998 21.5659 35.4889 21.7204C35.4165 22.746 35.067 23.6956 34.4746 24.4868C34.4124 24.5671 34.3252 24.6033 34.2268 24.5964Z" fill="#50A6C0"/>
<path d="M79.4037 19.7516C79.4149 19.9925 79.1642 20.1442 78.9623 20.0029C78.2214 19.4987 77.9006 18.643 77.4454 17.8907C76.5392 19.1258 75.8328 20.3325 75.7385 21.6672C75.547 24.3788 77.3259 26.58 80.0375 26.7715C82.749 26.963 84.9602 25.0436 85.1517 22.332C85.3918 18.932 81.8789 18.0909 82.2247 13.7947C80.7202 14.7051 79.2117 16.8718 79.4037 19.7516Z" fill="#59B4D0"/>
<path d="M80.0176 27.0524C77.1656 26.851 75.2501 24.5837 75.4575 21.6473C75.5617 20.1721 76.3725 18.888 77.2175 17.7193C77.2796 17.639 77.3669 17.6028 77.4512 17.6087C77.5495 17.6157 77.6308 17.6638 77.6821 17.738C77.7966 17.9155 77.8961 18.1061 77.9956 18.2967C78.3082 18.8694 78.6086 19.4131 79.1207 19.7599C78.9186 16.8228 80.4652 14.5176 82.073 13.544C82.1612 13.4937 82.2746 13.4876 82.369 13.5507C82.4644 13.5998 82.5136 13.7022 82.5057 13.8146C82.3238 15.9902 83.1948 17.2519 84.0277 18.4544C84.7841 19.5386 85.5527 20.6518 85.4326 22.3518C85.2292 25.232 82.8978 27.2559 80.0176 27.0524ZM77.4227 18.4115C76.7171 19.4066 76.1038 20.4928 76.0195 21.687C75.8359 24.2862 77.5284 26.3119 80.0573 26.4905C82.6143 26.6711 84.6901 24.8692 84.8707 22.3121C84.9768 20.8088 84.3228 19.8731 83.5673 18.7749C82.7857 17.6466 81.9147 16.3849 81.9171 14.3519C80.6314 15.3624 79.5201 17.303 79.6876 19.7293C79.6998 19.9561 79.5866 20.1599 79.396 20.2594C79.2055 20.3589 78.9807 20.343 78.806 20.2177C78.1865 19.7927 77.8498 19.1618 77.5111 18.559C77.472 18.5139 77.4468 18.4697 77.4227 18.4115Z" fill="#50A6C0"/>
<path d="M83.2467 24.3154C83.792 23.5915 84.1375 22.6981 84.2079 21.7006L83.2467 24.3154Z" fill="#FF793B"/>
<path d="M82.3201 25.2383C82.4244 25.161 82.5438 25.0706 82.635 24.9782L82.3201 25.2383Z" fill="#FF793B"/>
<path d="M82.3003 25.5193C82.216 25.5133 82.1477 25.4803 82.0965 25.406C82.0061 25.2867 82.033 25.1051 82.1524 25.0146C82.2426 24.9363 82.361 24.8599 82.4372 24.7806C82.5435 24.6752 82.7271 24.674 82.8326 24.7803C82.938 24.8866 82.9392 25.0702 82.8329 25.1757C82.7266 25.2811 82.5922 25.3846 82.4879 25.4619C82.4287 25.5001 82.3705 25.5242 82.3003 25.5193Z" fill="#50A6C0"/>
<path d="M83.2268 24.5964C83.1706 24.5924 83.1154 24.5744 83.0752 24.5433C82.9548 24.4501 82.9245 24.2785 83.0187 24.144C83.548 23.4471 83.8624 22.5939 83.9269 21.6807C83.9378 21.5262 84.085 20.8141 84.2395 20.825C84.394 20.836 84.4998 21.5659 84.4889 21.7204C84.4165 22.746 84.067 23.6956 83.4746 24.4868C83.4124 24.5671 83.3252 24.6033 83.2268 24.5964Z" fill="#50A6C0"/>
</svg>
