<svg width="198" height="36" viewBox="0 0 198 36" fill="none" xmlns="http://www.w3.org/2000/svg">
<g clip-path="url(#clip0_53_23)">
<path d="M69.6828 7.27599C69.6798 7.52288 69.4143 7.66287 69.2165 7.5062C68.4893 6.94604 68.213 6.05181 67.793 5.25525C66.7921 6.46321 65.9969 7.65433 65.82 9.01322C65.4605 11.7739 67.1464 14.1318 69.9071 14.4912C72.6678 14.8507 75.0443 13.0217 75.4038 10.261C75.8545 6.79944 72.3137 5.72748 72.9266 1.35601C71.3334 2.19594 69.6604 4.32011 69.6828 7.27599Z" fill="#59B4D0"/>
<path d="M69.8698 14.7773C66.9661 14.3992 65.1446 11.9655 65.5339 8.97594C65.7294 7.47401 66.6359 6.2101 67.5703 5.06621C67.6387 4.98784 67.7301 4.9561 67.8159 4.96727C67.9161 4.98031 67.9963 5.0344 68.0442 5.11337C68.1506 5.30178 68.2408 5.50263 68.331 5.70349C68.616 6.30791 68.8904 6.88186 69.393 7.26732C69.3637 4.25236 71.084 1.98887 72.7865 1.09046C72.8798 1.04442 72.9961 1.04501 73.0888 1.11527C73.1833 1.17121 73.2275 1.27879 73.2126 1.39323C72.8953 3.60664 73.7097 4.94913 74.4886 6.22882C75.1966 7.38291 75.9151 8.56746 75.6898 10.2983C75.308 13.2306 72.8022 15.1591 69.8698 14.7773ZM67.7384 5.78633C66.9569 6.76103 66.2643 7.83459 66.106 9.05044C65.7615 11.6967 67.3696 13.8699 69.9443 14.2051C72.5477 14.5441 74.7787 12.8271 75.1176 10.2238C75.3169 8.69322 74.7047 7.69708 73.9986 6.52869C73.2676 5.32797 72.4532 3.98548 72.5784 1.90706C71.2029 2.86261 69.9496 4.77959 69.9745 7.2703C69.9733 7.50289 69.8452 7.70441 69.6443 7.79463C69.4435 7.88485 69.2146 7.85505 69.0436 7.71641C68.4359 7.24453 68.1297 6.57917 67.8199 5.94241C67.7826 5.89391 67.7595 5.84728 67.7384 5.78633Z" fill="#50A6C0"/>
<path d="M73.3363 12.1738C73.9375 11.4666 74.3447 10.5741 74.4769 9.55849L73.3363 12.1738Z" fill="#FF793B"/>
<path d="M72.3334 13.0615C72.4447 12.9887 72.5722 12.9035 72.6711 12.8146L72.3334 13.0615Z" fill="#FF793B"/>
<path d="M72.2962 13.3476C72.2103 13.3364 72.1425 13.2985 72.0946 13.2196C72.0094 13.0921 72.0479 12.908 72.1754 12.8228C72.2724 12.7481 72.398 12.6772 72.4807 12.6007C72.5957 12.4993 72.7835 12.5092 72.8849 12.6242C72.9863 12.7392 72.9764 12.9271 72.8614 13.0285C72.7464 13.1298 72.6027 13.2275 72.4914 13.3003C72.4286 13.3358 72.3677 13.3569 72.2962 13.3476Z" fill="#50A6C0"/>
<path d="M73.2991 12.4599C73.2419 12.4525 73.1866 12.4307 73.1474 12.3965C73.0298 12.2939 73.0092 12.1167 73.1137 11.9848C73.6969 11.3043 74.0698 10.451 74.1909 9.52124C74.2114 9.36389 74.4047 8.64479 74.5621 8.66528C74.7194 8.68576 74.7835 9.43839 74.763 9.59574C74.6271 10.6399 74.2125 11.5897 73.5591 12.3628C73.4907 12.4412 73.3993 12.473 73.2991 12.4599Z" fill="#50A6C0"/>
</g>
<path d="M13.4 35.576C10.808 35.576 8.54001 35.108 6.59601 34.172C4.65201 33.212 3.14001 31.892 2.06001 30.212C1.00401 28.508 0.476013 26.54 0.476013 24.308C0.476013 22.1 0.860013 20.072 1.62801 18.224C2.42001 16.376 3.52401 14.78 4.94001 13.436C6.35601 12.092 8.03601 11.06 9.98001 10.34C11.924 9.59603 14.06 9.22402 16.388 9.22402C18.812 9.22402 20.96 9.65602 22.832 10.52C24.704 11.384 26.096 12.632 27.008 14.264L20.888 19.052C20.36 18.116 19.676 17.396 18.836 16.892C17.996 16.364 17 16.1 15.848 16.1C14.84 16.1 13.916 16.292 13.076 16.676C12.26 17.036 11.552 17.564 10.952 18.26C10.352 18.932 9.88401 19.736 9.54801 20.672C9.21201 21.608 9.04401 22.64 9.04401 23.768C9.04401 24.752 9.26001 25.616 9.69201 26.36C10.124 27.104 10.724 27.68 11.492 28.088C12.284 28.496 13.196 28.7 14.228 28.7C15.212 28.7 16.172 28.472 17.108 28.016C18.068 27.56 18.98 26.816 19.844 25.784L24.848 30.572C23.312 32.444 21.596 33.752 19.7 34.496C17.828 35.216 15.728 35.576 13.4 35.576ZM34.0466 35.36C32.7506 35.36 31.4786 35.012 30.2306 34.316C28.9826 33.596 27.9506 32.564 27.1346 31.22C26.3426 29.852 25.9466 28.196 25.9466 26.252C25.9466 24.62 26.2226 23.12 26.7746 21.752C27.3266 20.384 28.0826 19.196 29.0426 18.188C30.0266 17.156 31.1426 16.364 32.3906 15.812C33.6626 15.236 35.0066 14.948 36.4226 14.948C37.9586 14.948 39.2906 15.26 40.4186 15.884C41.5466 16.508 42.3506 17.564 42.8306 19.052C43.3346 20.516 43.3826 22.544 42.9746 25.136C42.6386 27.248 42.0626 29.072 41.2466 30.608C40.4546 32.144 39.4586 33.32 38.2586 34.136C37.0586 34.952 35.6546 35.36 34.0466 35.36ZM37.1066 28.952C37.8266 28.952 38.4506 28.772 38.9786 28.412C39.5066 28.028 39.9146 27.5 40.2026 26.828C40.5146 26.156 40.6706 25.364 40.6706 24.452C40.6706 23.54 40.4066 22.796 39.8786 22.22C39.3746 21.644 38.6666 21.356 37.7546 21.356C37.0586 21.356 36.4346 21.548 35.8826 21.932C35.3546 22.292 34.9346 22.808 34.6226 23.48C34.3346 24.152 34.1906 24.944 34.1906 25.856C34.1906 26.768 34.4426 27.512 34.9466 28.088C35.4746 28.664 36.1946 28.952 37.1066 28.952ZM39.0146 35L39.5546 32.336L40.8866 25.136L41.9306 18.008L42.4706 15.308H50.6066L46.6826 35H39.0146ZM50.2536 35L55.5816 8.28802H63.7176L58.3896 35H50.2536ZM61.9958 35L65.9198 15.308H74.0198L70.0958 35H61.9958ZM79.6237 35L76.5997 9.80003H84.9877L87.3997 31.076H83.0077L94.0957 9.80003H101.908L104.032 31.076H99.8917L110.944 9.80003H119.296L106.192 35H97.0837L95.1757 17.576H97.7677L88.7317 35H79.6237ZM123.449 35.36C122.153 35.36 120.881 35.012 119.633 34.316C118.385 33.596 117.353 32.564 116.537 31.22C115.745 29.852 115.349 28.196 115.349 26.252C115.349 24.62 115.625 23.12 116.177 21.752C116.729 20.384 117.485 19.196 118.445 18.188C119.429 17.156 120.545 16.364 121.793 15.812C123.065 15.236 124.409 14.948 125.825 14.948C127.361 14.948 128.693 15.26 129.821 15.884C130.949 16.508 131.753 17.564 132.233 19.052C132.737 20.516 132.785 22.544 132.377 25.136C132.041 27.248 131.465 29.072 130.649 30.608C129.857 32.144 128.861 33.32 127.661 34.136C126.461 34.952 125.057 35.36 123.449 35.36ZM126.509 28.952C127.229 28.952 127.853 28.772 128.381 28.412C128.909 28.028 129.317 27.5 129.605 26.828C129.917 26.156 130.073 25.364 130.073 24.452C130.073 23.54 129.809 22.796 129.281 22.22C128.777 21.644 128.069 21.356 127.157 21.356C126.461 21.356 125.837 21.548 125.285 21.932C124.757 22.292 124.337 22.808 124.025 23.48C123.737 24.152 123.593 24.944 123.593 25.856C123.593 26.768 123.845 27.512 124.349 28.088C124.877 28.664 125.597 28.952 126.509 28.952ZM128.417 35L128.957 32.336L130.289 25.136L131.333 18.008L131.873 15.308H140.009L136.085 35H128.417ZM149.088 35.36C147.408 35.36 145.98 35.048 144.804 34.424C143.628 33.8 142.8 32.888 142.32 31.688C141.84 30.464 141.768 29 142.104 27.296L145.38 10.88H153.516L150.24 27.26C150.12 27.932 150.192 28.424 150.456 28.736C150.72 29.048 151.128 29.204 151.68 29.204C152.016 29.204 152.316 29.168 152.58 29.096C152.868 29 153.168 28.88 153.48 28.736L154.416 34.208C153.672 34.616 152.832 34.904 151.896 35.072C150.984 35.264 150.048 35.36 149.088 35.36ZM140.376 22.328L141.564 16.388H156.432L155.244 22.328H140.376ZM167.423 35.36C165.263 35.36 163.367 34.988 161.735 34.244C160.127 33.5 158.867 32.444 157.955 31.076C157.043 29.708 156.587 28.1 156.587 26.252C156.587 24.092 157.091 22.16 158.099 20.456C159.107 18.752 160.523 17.408 162.347 16.424C164.195 15.44 166.343 14.948 168.791 14.948C170.903 14.948 172.703 15.32 174.191 16.064C175.679 16.808 176.819 17.828 177.611 19.124C178.403 20.42 178.799 21.92 178.799 23.624C178.799 24.224 178.751 24.812 178.655 25.388C178.583 25.964 178.487 26.516 178.367 27.044H163.067L163.823 23.12H174.623L171.239 24.164C171.431 23.396 171.419 22.748 171.203 22.22C171.011 21.668 170.675 21.248 170.195 20.96C169.715 20.648 169.127 20.492 168.431 20.492C167.447 20.492 166.667 20.756 166.091 21.284C165.515 21.812 165.095 22.496 164.831 23.336C164.591 24.176 164.471 25.052 164.471 25.964C164.471 27.188 164.795 28.064 165.443 28.592C166.115 29.096 167.087 29.348 168.359 29.348C169.103 29.348 169.847 29.24 170.591 29.024C171.335 28.784 172.019 28.436 172.643 27.98L176.027 32.912C174.683 33.824 173.279 34.46 171.815 34.82C170.375 35.18 168.911 35.36 167.423 35.36ZM179.031 35L182.955 15.308H190.623L189.507 20.888L188.751 19.304C189.567 17.744 190.695 16.628 192.135 15.956C193.599 15.284 195.267 14.948 197.139 14.948L195.699 22.148C195.363 22.1 195.051 22.064 194.763 22.04C194.499 22.016 194.223 22.004 193.935 22.004C192.591 22.004 191.499 22.304 190.659 22.904C189.843 23.504 189.291 24.5 189.003 25.892L187.167 35H179.031Z" fill="#131313"/>
<defs>
<clipPath id="clip0_53_23">
<rect width="14" height="14" fill="white" transform="translate(64.8076) rotate(7.41828)"/>
</clipPath>
</defs>
</svg>
