<svg width="32" height="33" viewBox="0 0 32 33" fill="none" xmlns="http://www.w3.org/2000/svg">
<path d="M12.4071 0.386547C10.764 0.645977 8.51561 1.51075 7.47788 2.11608C4.53768 4.01857 1.77042 9.55308 2.28928 12.7527C2.46223 14.3958 2.02985 16.3847 1.07861 17.9413C-0.564451 20.7086 -0.305021 22.8705 1.68394 22.8705C2.37576 22.8705 2.89462 23.7353 2.89462 24.9459C2.89462 25.9837 3.327 28.1456 3.84586 29.7022C4.71063 32.21 5.05654 32.3829 8.94799 32.3829C11.2829 32.3829 13.7907 32.1235 14.569 31.8641C16.1256 31.2587 18.4604 27.1943 18.4604 25.0324C18.4604 22.784 16.9903 23.5623 15.9526 26.3296C15.0878 29.0103 12.2341 30.6534 8.60208 30.6534C7.13198 30.6534 6.44016 29.9616 5.66187 27.5402C5.14301 25.8107 4.97006 23.9082 5.22949 23.2164C5.48892 22.5246 5.31597 22.0057 4.97006 22.0057C4.53768 22.0057 3.67291 21.6598 2.98109 21.2274C2.02985 20.6221 2.11633 20.1032 3.327 18.2008C4.27825 16.8171 4.62415 15.0011 4.36472 13.531C3.75939 10.1584 5.83483 5.92106 9.12094 3.84562C14.6555 0.473026 24.7732 2.37551 28.3188 7.47764C31.1725 11.542 29.0106 19.5844 24.5138 22.0057C22.8707 22.8705 22.6978 23.4758 23.2167 26.589C23.5626 28.578 24.2544 30.9128 24.6868 31.8641C26.1569 34.5449 27.0216 32.1235 25.9839 28.3185C25.0327 24.773 25.1191 24.5136 27.7999 21.9193C30.9131 18.8926 32.6426 13.7904 31.7778 10.1584C30.2213 3.49971 20.8818 -1.25651 12.4071 0.386547Z" fill="#59B4D0"/>
<path d="M12.8395 3.75914C12.58 4.278 11.6288 4.71039 10.8505 4.71039C9.03449 4.71039 6.09428 9.89899 6.52667 12.1474C6.69962 13.0986 8.08325 14.2228 9.81278 14.7417C11.3694 15.2605 13.7042 16.6442 14.9149 17.8549C16.2121 19.0655 17.8551 20.2762 18.7199 20.5356C19.4982 20.8815 20.19 21.9193 20.19 22.8705C20.19 23.8217 20.6224 24.6 21.1412 24.6C21.8331 24.6 22.006 23.5623 21.6601 21.5734C21.2277 18.979 21.4007 18.5467 22.7843 18.5467C25.2056 18.5467 27.7999 12.8392 26.4163 10.6773C25.811 9.81251 25.3786 8.51536 25.3786 7.82355C25.3786 5.31572 14.1366 1.6837 12.8395 3.75914Z" fill="#59B4D0"/>
</svg>
