<svg width="105" height="59" viewBox="0 0 105 59" fill="none" xmlns="http://www.w3.org/2000/svg">
<path d="M25.124 33.608C25.5053 34.4587 25.52 35.2947 25.168 36.116C24.816 36.908 24.2587 37.6413 23.496 38.316C22.7333 38.9907 21.8533 39.5773 20.856 40.076C19.888 40.5747 18.964 40.9267 18.084 41.132C17.116 41.3373 16.0893 41.4253 15.004 41.396C13.948 41.396 12.8773 41.264 11.792 41C10.736 40.7653 9.69467 40.4133 8.668 39.944C7.67067 39.4453 6.74667 38.844 5.896 38.14C4.86933 37.2893 4.06267 36.2773 3.476 35.104C2.91867 33.9013 2.508 32.6253 2.244 31.276C1.98 29.9267 1.83333 28.5773 1.804 27.228C1.804 25.8493 1.848 24.5587 1.936 23.356C2.024 22.2707 2.244 21.1413 2.596 19.968C2.948 18.7947 3.432 17.6507 4.048 16.536C4.69333 15.392 5.456 14.336 6.336 13.368C7.24533 12.4 8.30133 11.5787 9.504 10.904C10.4133 10.376 11.4253 10.024 12.54 9.848C13.684 9.64267 14.828 9.59867 15.972 9.716C17.1453 9.804 18.2453 10.0533 19.272 10.464C20.328 10.8453 21.2227 11.3733 21.956 12.048C22.4253 12.4587 22.9093 13.0307 23.408 13.764C23.936 14.4973 24.3173 15.2453 24.552 16.008C24.7867 16.7707 24.7867 17.4893 24.552 18.164C24.3467 18.8093 23.76 19.2493 22.792 19.484C22.3813 19.6013 22.0147 19.6307 21.692 19.572C21.3693 19.484 21.076 19.352 20.812 19.176C20.548 18.9707 20.2987 18.736 20.064 18.472C19.8293 18.208 19.6093 17.944 19.404 17.68C18.7 16.8293 17.8787 16.2573 16.94 15.964C16.0013 15.6413 15.0627 15.568 14.124 15.744C13.2147 15.8907 12.3493 16.272 11.528 16.888C10.736 17.4747 10.12 18.2373 9.68 19.176C9.21067 20.1733 8.82933 21.2733 8.536 22.476C8.272 23.6493 8.12533 24.852 8.096 26.084C8.06667 27.2867 8.16933 28.46 8.404 29.604C8.668 30.748 9.108 31.76 9.724 32.64C10.1933 33.344 10.7653 33.916 11.44 34.356C12.144 34.796 12.892 35.104 13.684 35.28C14.476 35.456 15.268 35.4853 16.06 35.368C16.8813 35.2507 17.6733 34.9867 18.436 34.576C18.6707 34.4587 18.92 34.2973 19.184 34.092C19.4773 33.8573 19.7707 33.6227 20.064 33.388C20.3573 33.1533 20.6507 32.9333 20.944 32.728C21.2667 32.5227 21.604 32.376 21.956 32.288C22.484 32.112 23.056 32.1267 23.672 32.332C24.3173 32.5373 24.8013 32.9627 25.124 33.608ZM34.3712 41C34.3712 41.7627 34.0926 42.408 33.5352 42.936C33.0072 43.4933 32.3619 43.772 31.5992 43.772C30.8366 43.772 30.1766 43.4933 29.6192 42.936C29.0912 42.408 28.8272 41.7627 28.8272 41C28.8272 40.2373 29.0912 39.5773 29.6192 39.02C30.1766 38.4627 30.8366 38.184 31.5992 38.184C32.3619 38.184 33.0072 38.4627 33.5352 39.02C34.0926 39.5773 34.3712 40.2373 34.3712 41Z" fill="black"/>
<path d="M64.5638 37.832C64.5345 38.184 64.4905 38.5507 64.4318 38.932C64.3731 39.3133 64.2705 39.6653 64.1238 39.988C63.9771 40.34 63.7865 40.604 63.5518 40.78C63.2291 41.0733 62.8478 41.2347 62.4078 41.264C61.9971 41.4107 61.6011 41.4547 61.2198 41.396C60.8385 41.3373 60.4865 41.2347 60.1638 41.088C59.7531 40.824 59.4451 40.516 59.2398 40.164C59.0638 39.7827 58.9318 39.3867 58.8438 38.976C58.7558 38.5653 58.7118 38.14 58.7118 37.7C58.7118 37.26 58.7118 36.8493 58.7118 36.468V33.036L58.6678 26.304C58.6678 25.8347 58.6678 25.468 58.6678 25.204C58.6678 24.94 58.6678 24.7053 58.6678 24.5C58.6678 24.2653 58.6531 24.016 58.6238 23.752C58.6238 23.4587 58.6238 23.048 58.6238 22.52C58.6238 22.432 58.6238 22.2853 58.6238 22.08C58.6531 21.8453 58.6385 21.244 58.5798 20.276C57.4358 22.1827 56.4825 23.7227 55.7198 24.896C54.9865 26.04 54.3558 26.9347 53.8278 27.58C53.3291 28.196 52.8891 28.6213 52.5078 28.856C52.1265 29.0613 51.7305 29.1787 51.3198 29.208C51.0851 29.2373 50.8505 29.1933 50.6158 29.076C50.3811 28.9587 50.1465 28.812 49.9118 28.636C49.7065 28.46 49.5011 28.284 49.2958 28.108C49.1198 27.9027 48.9731 27.712 48.8558 27.536C48.1518 26.656 47.3598 25.6 46.4798 24.368C45.5998 23.136 44.6905 21.64 43.7518 19.88C43.7518 19.9093 43.7371 20.3933 43.7078 21.332C43.7078 22.2707 43.7078 23.444 43.7078 24.852C43.7078 26.2307 43.6931 27.7267 43.6638 29.34C43.6638 30.924 43.6491 32.4053 43.6198 33.784C43.6198 35.1627 43.6051 36.3213 43.5758 37.26C43.5465 38.1693 43.5171 38.624 43.4878 38.624C43.4878 39.1227 43.3705 39.592 43.1358 40.032C42.9011 40.4427 42.5785 40.78 42.1678 41.044C41.7865 41.308 41.3318 41.4547 40.8038 41.484C40.2758 41.5133 39.7038 41.3667 39.0878 41.044C38.7065 40.8093 38.4131 40.472 38.2078 40.032C38.0318 39.592 37.9145 39.1813 37.8558 38.8C37.8265 38.3893 37.7971 37.9933 37.7678 37.612C37.7678 37.2307 37.7678 36.8347 37.7678 36.424L37.8118 32.992L37.8558 26.216V20.32C37.8558 17.768 37.9438 15.26 38.1198 12.796C38.1198 12.4733 38.1491 12.18 38.2078 11.916C38.2958 11.6227 38.3985 11.344 38.5158 11.08C38.7505 10.6107 39.0585 10.2587 39.4398 10.024C39.8798 9.76 40.3491 9.628 40.8478 9.628C41.0531 9.628 41.2438 9.64266 41.4198 9.672C41.6251 9.672 41.8158 9.68667 41.9918 9.716C42.5785 9.83333 43.0771 10.1853 43.4878 10.772C43.9278 11.3293 44.3385 11.8133 44.7198 12.224C44.9545 12.488 45.2038 12.8107 45.4678 13.192C45.7318 13.5733 45.9958 13.9693 46.2598 14.38C46.5238 14.7907 46.7731 15.1867 47.0078 15.568C47.2425 15.9493 47.4478 16.2867 47.6238 16.58C48.3865 17.812 49.0611 18.9413 49.6478 19.968C50.2638 20.9947 50.8358 21.8747 51.3638 22.608C51.4518 22.52 51.5545 22.4027 51.6718 22.256C51.7891 22.08 51.9065 21.904 52.0238 21.728C52.1705 21.5227 52.2878 21.332 52.3758 21.156C52.4931 20.98 52.5811 20.8333 52.6398 20.716C52.9331 20.2467 53.2265 19.792 53.5198 19.352C53.8131 18.8827 54.1211 18.3987 54.4438 17.9C54.7958 17.372 55.1478 16.8 55.4998 16.184C55.8811 15.568 56.3211 14.864 56.8198 14.072C57.0251 13.72 57.2891 13.2947 57.6118 12.796C57.9345 12.2973 58.3011 11.8133 58.7118 11.344C59.1225 10.8747 59.5478 10.4787 59.9878 10.156C60.4571 9.804 60.9265 9.628 61.3958 9.628C61.6305 9.628 61.8358 9.64266 62.0118 9.672C62.1878 9.672 62.3638 9.68667 62.5398 9.716C62.8918 9.74533 63.2291 9.90666 63.5518 10.2C63.7865 10.4347 63.9625 10.684 64.0798 10.948C64.1971 11.3293 64.2705 11.652 64.2998 11.916C64.3291 12.1213 64.3438 12.312 64.3438 12.488C64.3731 12.664 64.3878 12.84 64.3878 13.016C64.3878 14.6587 64.4025 16.2867 64.4318 17.9C64.4611 19.5133 64.4758 21.1413 64.4758 22.784C64.4758 24.7787 64.4758 26.832 64.4758 28.944C64.5051 31.056 64.5198 33.1093 64.5198 35.104C64.5198 35.5147 64.5345 35.9547 64.5638 36.424C64.5931 36.8933 64.5931 37.3627 64.5638 37.832ZM73.5587 41C73.5587 41.7627 73.2801 42.408 72.7227 42.936C72.1947 43.4933 71.5494 43.772 70.7867 43.772C70.0241 43.772 69.3641 43.4933 68.8067 42.936C68.2787 42.408 68.0147 41.7627 68.0147 41C68.0147 40.2373 68.2787 39.5773 68.8067 39.02C69.3641 38.4627 70.0241 38.184 70.7867 38.184C71.5494 38.184 72.1947 38.4627 72.7227 39.02C73.2801 39.5773 73.5587 40.2373 73.5587 41Z" fill="#59B4D0"/>
<path d="M85.4071 8.38655C83.764 8.64598 81.5156 9.51075 80.4779 10.1161C77.5377 12.0186 74.7704 17.5531 75.2893 20.7527C75.4622 22.3958 75.0299 24.3847 74.0786 25.9413C72.4355 28.7086 72.695 30.8705 74.6839 30.8705C75.3758 30.8705 75.8946 31.7353 75.8946 32.9459C75.8946 33.9837 76.327 36.1456 76.8459 37.7022C77.7106 40.21 78.0565 40.3829 81.948 40.3829C84.2829 40.3829 86.7907 40.1235 87.569 39.8641C89.1256 39.2587 91.4604 35.1943 91.4604 33.0324C91.4604 30.784 89.9903 31.5623 88.9526 34.3296C88.0878 37.0103 85.2341 38.6534 81.6021 38.6534C80.132 38.6534 79.4402 37.9616 78.6619 35.5402C78.143 33.8107 77.9701 31.9082 78.2295 31.2164C78.4889 30.5246 78.316 30.0057 77.9701 30.0057C77.5377 30.0057 76.6729 29.6598 75.9811 29.2274C75.0299 28.6221 75.1163 28.1032 76.327 26.2008C77.2782 24.8171 77.6242 23.0011 77.3647 21.531C76.7594 18.1584 78.8348 13.9211 82.1209 11.8456C87.6555 8.47303 97.7732 10.3755 101.319 15.4776C104.173 19.542 102.011 27.5844 97.5138 30.0057C95.8707 30.8705 95.6978 31.4758 96.2167 34.589C96.5626 36.578 97.2544 38.9128 97.6868 39.8641C99.1569 42.5449 100.022 40.1235 98.9839 36.3185C98.0327 32.773 98.1191 32.5136 100.8 29.9193C103.913 26.8926 105.643 21.7904 104.778 18.1584C103.221 11.4997 93.8818 6.74349 85.4071 8.38655Z" fill="#59B4D0"/>
<path d="M85.8395 11.7591C85.58 12.278 84.6288 12.7104 83.8505 12.7104C82.0345 12.7104 79.0943 17.899 79.5267 20.1474C79.6996 21.0986 81.0832 22.2228 82.8128 22.7417C84.3694 23.2605 86.7042 24.6442 87.9149 25.8549C89.2121 27.0655 90.8551 28.2762 91.7199 28.5356C92.4982 28.8815 93.19 29.9193 93.19 30.8705C93.19 31.8217 93.6224 32.6 94.1412 32.6C94.8331 32.6 95.006 31.5623 94.6601 29.5734C94.2277 26.979 94.4007 26.5467 95.7843 26.5467C98.2056 26.5467 100.8 20.8392 99.4163 18.6773C98.811 17.8125 98.3786 16.5154 98.3786 15.8235C98.3786 13.3157 87.1366 9.6837 85.8395 11.7591Z" fill="#59B4D0"/>
</svg>
