<svg width="188" height="44" viewBox="0 0 188 44" fill="none" xmlns="http://www.w3.org/2000/svg">
<path d="M25.124 33.608C25.5053 34.4587 25.52 35.2947 25.168 36.116C24.816 36.908 24.2587 37.6413 23.496 38.316C22.7333 38.9907 21.8533 39.5773 20.856 40.076C19.888 40.5747 18.964 40.9267 18.084 41.132C17.116 41.3373 16.0893 41.4253 15.004 41.396C13.948 41.396 12.8773 41.264 11.792 41C10.736 40.7653 9.69467 40.4133 8.668 39.944C7.67067 39.4453 6.74667 38.844 5.896 38.14C4.86933 37.2893 4.06267 36.2773 3.476 35.104C2.91867 33.9013 2.508 32.6253 2.244 31.276C1.98 29.9267 1.83333 28.5773 1.804 27.228C1.804 25.8493 1.848 24.5587 1.936 23.356C2.024 22.2707 2.244 21.1413 2.596 19.968C2.948 18.7947 3.432 17.6507 4.048 16.536C4.69333 15.392 5.456 14.336 6.336 13.368C7.24533 12.4 8.30133 11.5787 9.504 10.904C10.4133 10.376 11.4253 10.024 12.54 9.848C13.684 9.64267 14.828 9.59867 15.972 9.716C17.1453 9.804 18.2453 10.0533 19.272 10.464C20.328 10.8453 21.2227 11.3733 21.956 12.048C22.4253 12.4587 22.9093 13.0307 23.408 13.764C23.936 14.4973 24.3173 15.2453 24.552 16.008C24.7867 16.7707 24.7867 17.4893 24.552 18.164C24.3467 18.8093 23.76 19.2493 22.792 19.484C22.3813 19.6013 22.0147 19.6307 21.692 19.572C21.3693 19.484 21.076 19.352 20.812 19.176C20.548 18.9707 20.2987 18.736 20.064 18.472C19.8293 18.208 19.6093 17.944 19.404 17.68C18.7 16.8293 17.8787 16.2573 16.94 15.964C16.0013 15.6413 15.0627 15.568 14.124 15.744C13.2147 15.8907 12.3493 16.272 11.528 16.888C10.736 17.4747 10.12 18.2373 9.68 19.176C9.21067 20.1733 8.82933 21.2733 8.536 22.476C8.272 23.6493 8.12533 24.852 8.096 26.084C8.06667 27.2867 8.16933 28.46 8.404 29.604C8.668 30.748 9.108 31.76 9.724 32.64C10.1933 33.344 10.7653 33.916 11.44 34.356C12.144 34.796 12.892 35.104 13.684 35.28C14.476 35.456 15.268 35.4853 16.06 35.368C16.8813 35.2507 17.6733 34.9867 18.436 34.576C18.6707 34.4587 18.92 34.2973 19.184 34.092C19.4773 33.8573 19.7707 33.6227 20.064 33.388C20.3573 33.1533 20.6507 32.9333 20.944 32.728C21.2667 32.5227 21.604 32.376 21.956 32.288C22.484 32.112 23.056 32.1267 23.672 32.332C24.3173 32.5373 24.8013 32.9627 25.124 33.608ZM34.1072 22.476C34.9872 22.036 35.9112 21.728 36.8792 21.552C37.8472 21.3467 38.8006 21.3027 39.7392 21.42C40.7072 21.508 41.6312 21.7573 42.5112 22.168C43.3912 22.5493 44.2126 23.1067 44.9752 23.84C45.7379 24.6027 46.3246 25.4387 46.7352 26.348C47.1459 27.2573 47.4392 28.2693 47.6152 29.384C47.7326 30.1467 47.9232 30.8507 48.1872 31.496C48.4512 32.1413 48.7299 32.7867 49.0232 33.432C49.3459 34.0773 49.6392 34.7227 49.9032 35.368C50.1966 36.0133 50.4312 36.688 50.6072 37.392C50.7539 38.0667 50.6952 38.7267 50.4312 39.372C50.1966 39.988 49.6979 40.3693 48.9352 40.516C48.4952 40.604 48.0699 40.5747 47.6592 40.428C47.2779 40.252 46.9259 40.0173 46.6032 39.724C46.2806 39.4013 45.9872 39.064 45.7232 38.712C45.4886 38.3307 45.2686 37.9787 45.0632 37.656C44.3886 38.536 43.6552 39.2253 42.8632 39.724C42.0712 40.1933 41.1179 40.5013 40.0032 40.648C39.0646 40.7653 38.1699 40.7947 37.3192 40.736C36.4686 40.6773 35.5592 40.516 34.5912 40.252C33.3299 39.9293 32.2886 39.372 31.4672 38.58C30.6752 37.7587 30.0592 36.82 29.6192 35.764C29.2086 34.6787 28.9886 33.52 28.9592 32.288C28.9299 31.056 29.0766 29.8387 29.3992 28.636C29.8099 27.052 30.4259 25.7613 31.2472 24.764C32.0686 23.7667 33.0219 23.004 34.1072 22.476ZM35.2072 27.624C34.7966 28.0347 34.4739 28.5187 34.2392 29.076C34.0046 29.6333 33.8579 30.22 33.7992 30.836C33.7699 31.452 33.8286 32.068 33.9752 32.684C34.1219 33.3 34.3566 33.8427 34.6792 34.312C34.9726 34.7227 35.4712 35.0747 36.1752 35.368C36.8792 35.632 37.6126 35.7933 38.3752 35.852C39.2552 35.9107 40.0179 35.676 40.6632 35.148C41.3379 34.62 41.8366 33.96 42.1592 33.168C42.5112 32.3467 42.6726 31.4813 42.6432 30.572C42.6139 29.6333 42.3646 28.7827 41.8952 28.02C41.5432 27.4627 41.0739 27.052 40.4872 26.788C39.9299 26.524 39.3286 26.392 38.6832 26.392C38.0379 26.3627 37.3926 26.4653 36.7472 26.7C36.1312 26.9053 35.6179 27.2133 35.2072 27.624ZM60.1198 37.48C60.0905 37.6267 60.0611 37.7733 60.0318 37.92C60.0318 38.0373 60.0318 38.1693 60.0318 38.316L59.7678 39.24C59.7091 39.3573 59.6651 39.4307 59.6358 39.46L59.5038 39.724C59.3571 40.0467 59.0931 40.3107 58.7118 40.516C58.0078 40.868 57.2598 40.956 56.4678 40.78C55.9691 40.7213 55.5731 40.5747 55.2798 40.34C54.9865 40.1347 54.7811 39.8853 54.6638 39.592C54.5465 39.2987 54.4585 39.0053 54.3998 38.712C54.3118 38.4187 54.2678 38.1547 54.2678 37.92V13.28C54.2678 13.0747 54.2678 12.8987 54.2678 12.752C54.2971 12.576 54.3265 12.4147 54.3558 12.268C54.3851 12.0627 54.4145 11.8867 54.4438 11.74C54.5025 11.5933 54.5611 11.432 54.6198 11.256C54.7078 10.9627 54.8691 10.728 55.1038 10.552C55.4558 10.288 55.7931 10.1413 56.1158 10.112C56.3211 10.0533 56.5118 10.024 56.6878 10.024C56.8638 9.99466 57.0691 9.98 57.3038 9.98C57.7145 9.98 58.1838 10.0973 58.7118 10.332C59.1225 10.5667 59.4158 10.8893 59.5918 11.3C59.8851 11.8867 60.0318 12.4293 60.0318 12.928C60.0611 13.2213 60.0758 13.6613 60.0758 14.248C60.1051 14.8347 60.1198 15.2747 60.1198 15.568V15.744C60.1785 16.6827 60.2078 17.592 60.2078 18.472C60.2078 19.3227 60.1931 20.2613 60.1638 21.288C60.1638 22.2853 60.1491 23.2533 60.1198 24.192C60.1198 25.1013 60.1198 26.0107 60.1198 26.92V36.16C60.1198 36.2773 60.1198 36.3947 60.1198 36.512C60.1491 36.6 60.1638 36.7027 60.1638 36.82C60.1638 37.1133 60.1491 37.3333 60.1198 37.48ZM69.2649 24.324C69.2649 25.1453 69.2649 26.0693 69.2649 27.096C69.2943 28.1227 69.3089 29.1933 69.3089 30.308C69.3089 31.3933 69.3089 32.4787 69.3089 33.564C69.3089 34.62 69.2943 35.6027 69.2649 36.512C69.2356 36.952 69.1916 37.436 69.1329 37.964C69.0743 38.4627 68.9569 38.932 68.7809 39.372C68.6049 39.812 68.3263 40.1787 67.9449 40.472C67.5929 40.736 67.1089 40.8533 66.4929 40.824C65.5836 40.7653 64.9236 40.3693 64.5129 39.636C64.1316 38.9027 63.9116 37.876 63.8529 36.556C63.8529 35.8813 63.8383 35.104 63.8089 34.224C63.8089 33.344 63.7943 32.4493 63.7649 31.54C63.7649 30.6307 63.7649 29.7507 63.7649 28.9C63.7649 28.02 63.7649 27.228 63.7649 26.524C63.7649 26.1133 63.7503 25.6147 63.7209 25.028C63.7209 24.4413 63.7356 23.84 63.7649 23.224C63.7943 22.608 63.8676 22.0213 63.9849 21.464C64.1023 20.8773 64.2929 20.3933 64.5569 20.012C64.7623 19.7773 65.0556 19.6013 65.4369 19.484C65.8183 19.3373 66.2143 19.264 66.6249 19.264C67.0649 19.264 67.4756 19.3373 67.8569 19.484C68.2676 19.6307 68.5609 19.836 68.7369 20.1C68.8543 20.276 68.9423 20.5253 69.0009 20.848C69.0596 21.1707 69.1036 21.5373 69.1329 21.948C69.1916 22.3293 69.2209 22.74 69.2209 23.18C69.2503 23.5907 69.2649 23.972 69.2649 24.324ZM67.5929 15.436C66.6836 15.6707 65.9209 15.5827 65.3049 15.172C64.7183 14.732 64.3516 14.0867 64.2049 13.236C64.0876 12.62 64.1316 12.0773 64.3369 11.608C64.5423 11.1387 64.8503 10.7867 65.2609 10.552C65.6716 10.288 66.1409 10.1707 66.6689 10.2C67.1969 10.2293 67.7249 10.4347 68.2529 10.816C68.7516 11.168 69.1036 11.5787 69.3089 12.048C69.5436 12.5173 69.6169 12.972 69.5289 13.412C69.4703 13.852 69.2796 14.2627 68.9569 14.644C68.6343 14.996 68.1796 15.26 67.5929 15.436Z" fill="black"/>
<path d="M99.9271 37.832C99.8978 38.184 99.8538 38.5507 99.7951 38.932C99.7364 39.3133 99.6338 39.6653 99.4871 39.988C99.3404 40.34 99.1498 40.604 98.9151 40.78C98.5924 41.0733 98.2111 41.2347 97.7711 41.264C97.3604 41.4107 96.9644 41.4547 96.5831 41.396C96.2018 41.3373 95.8498 41.2347 95.5271 41.088C95.1164 40.824 94.8084 40.516 94.6031 40.164C94.4271 39.7827 94.2951 39.3867 94.2071 38.976C94.1191 38.5653 94.0751 38.14 94.0751 37.7C94.0751 37.26 94.0751 36.8493 94.0751 36.468V33.036L94.0311 26.304C94.0311 25.8347 94.0311 25.468 94.0311 25.204C94.0311 24.94 94.0311 24.7053 94.0311 24.5C94.0311 24.2653 94.0164 24.016 93.9871 23.752C93.9871 23.4587 93.9871 23.048 93.9871 22.52C93.9871 22.432 93.9871 22.2853 93.9871 22.08C94.0164 21.8453 94.0018 21.244 93.9431 20.276C92.7991 22.1827 91.8458 23.7227 91.0831 24.896C90.3498 26.04 89.7191 26.9347 89.1911 27.58C88.6924 28.196 88.2524 28.6213 87.8711 28.856C87.4898 29.0613 87.0938 29.1787 86.6831 29.208C86.4484 29.2373 86.2138 29.1933 85.9791 29.076C85.7444 28.9587 85.5098 28.812 85.2751 28.636C85.0698 28.46 84.8644 28.284 84.6591 28.108C84.4831 27.9027 84.3364 27.712 84.2191 27.536C83.5151 26.656 82.7231 25.6 81.8431 24.368C80.9631 23.136 80.0538 21.64 79.1151 19.88C79.1151 19.9093 79.1004 20.3933 79.0711 21.332C79.0711 22.2707 79.0711 23.444 79.0711 24.852C79.0711 26.2307 79.0564 27.7267 79.0271 29.34C79.0271 30.924 79.0124 32.4053 78.9831 33.784C78.9831 35.1627 78.9684 36.3213 78.9391 37.26C78.9098 38.1693 78.8804 38.624 78.8511 38.624C78.8511 39.1227 78.7338 39.592 78.4991 40.032C78.2644 40.4427 77.9418 40.78 77.5311 41.044C77.1498 41.308 76.6951 41.4547 76.1671 41.484C75.6391 41.5133 75.0671 41.3667 74.4511 41.044C74.0698 40.8093 73.7764 40.472 73.5711 40.032C73.3951 39.592 73.2778 39.1813 73.2191 38.8C73.1898 38.3893 73.1604 37.9933 73.1311 37.612C73.1311 37.2307 73.1311 36.8347 73.1311 36.424L73.1751 32.992L73.2191 26.216V20.32C73.2191 17.768 73.3071 15.26 73.4831 12.796C73.4831 12.4733 73.5124 12.18 73.5711 11.916C73.6591 11.6227 73.7618 11.344 73.8791 11.08C74.1138 10.6107 74.4218 10.2587 74.8031 10.024C75.2431 9.76 75.7124 9.628 76.2111 9.628C76.4164 9.628 76.6071 9.64266 76.7831 9.672C76.9884 9.672 77.1791 9.68667 77.3551 9.716C77.9418 9.83333 78.4404 10.1853 78.8511 10.772C79.2911 11.3293 79.7018 11.8133 80.0831 12.224C80.3178 12.488 80.5671 12.8107 80.8311 13.192C81.0951 13.5733 81.3591 13.9693 81.6231 14.38C81.8871 14.7907 82.1364 15.1867 82.3711 15.568C82.6058 15.9493 82.8111 16.2867 82.9871 16.58C83.7498 17.812 84.4244 18.9413 85.0111 19.968C85.6271 20.9947 86.1991 21.8747 86.7271 22.608C86.8151 22.52 86.9178 22.4027 87.0351 22.256C87.1524 22.08 87.2698 21.904 87.3871 21.728C87.5338 21.5227 87.6511 21.332 87.7391 21.156C87.8564 20.98 87.9444 20.8333 88.0031 20.716C88.2964 20.2467 88.5898 19.792 88.8831 19.352C89.1764 18.8827 89.4844 18.3987 89.8071 17.9C90.1591 17.372 90.5111 16.8 90.8631 16.184C91.2444 15.568 91.6844 14.864 92.1831 14.072C92.3884 13.72 92.6524 13.2947 92.9751 12.796C93.2978 12.2973 93.6644 11.8133 94.0751 11.344C94.4858 10.8747 94.9111 10.4787 95.3511 10.156C95.8204 9.804 96.2898 9.628 96.7591 9.628C96.9938 9.628 97.1991 9.64266 97.3751 9.672C97.5511 9.672 97.7271 9.68667 97.9031 9.716C98.2551 9.74533 98.5924 9.90666 98.9151 10.2C99.1498 10.4347 99.3258 10.684 99.4431 10.948C99.5604 11.3293 99.6338 11.652 99.6631 11.916C99.6924 12.1213 99.7071 12.312 99.7071 12.488C99.7364 12.664 99.7511 12.84 99.7511 13.016C99.7511 14.6587 99.7658 16.2867 99.7951 17.9C99.8244 19.5133 99.8391 21.1413 99.8391 22.784C99.8391 24.7787 99.8391 26.832 99.8391 28.944C99.8684 31.056 99.8831 33.1093 99.8831 35.104C99.8831 35.5147 99.8978 35.9547 99.9271 36.424C99.9564 36.8933 99.9564 37.3627 99.9271 37.832ZM110.472 24.324C110.472 25.1453 110.472 26.0693 110.472 27.096C110.501 28.1227 110.516 29.1933 110.516 30.308C110.516 31.3933 110.516 32.4787 110.516 33.564C110.516 34.62 110.501 35.6027 110.472 36.512C110.443 36.952 110.399 37.436 110.34 37.964C110.281 38.4627 110.164 38.932 109.988 39.372C109.812 39.812 109.533 40.1787 109.152 40.472C108.8 40.736 108.316 40.8533 107.7 40.824C106.791 40.7653 106.131 40.3693 105.72 39.636C105.339 38.9027 105.119 37.876 105.06 36.556C105.06 35.8813 105.045 35.104 105.016 34.224C105.016 33.344 105.001 32.4493 104.972 31.54C104.972 30.6307 104.972 29.7507 104.972 28.9C104.972 28.02 104.972 27.228 104.972 26.524C104.972 26.1133 104.957 25.6147 104.928 25.028C104.928 24.4413 104.943 23.84 104.972 23.224C105.001 22.608 105.075 22.0213 105.192 21.464C105.309 20.8773 105.5 20.3933 105.764 20.012C105.969 19.7773 106.263 19.6013 106.644 19.484C107.025 19.3373 107.421 19.264 107.832 19.264C108.272 19.264 108.683 19.3373 109.064 19.484C109.475 19.6307 109.768 19.836 109.944 20.1C110.061 20.276 110.149 20.5253 110.208 20.848C110.267 21.1707 110.311 21.5373 110.34 21.948C110.399 22.3293 110.428 22.74 110.428 23.18C110.457 23.5907 110.472 23.972 110.472 24.324ZM108.8 15.436C107.891 15.6707 107.128 15.5827 106.512 15.172C105.925 14.732 105.559 14.0867 105.412 13.236C105.295 12.62 105.339 12.0773 105.544 11.608C105.749 11.1387 106.057 10.7867 106.468 10.552C106.879 10.288 107.348 10.1707 107.876 10.2C108.404 10.2293 108.932 10.4347 109.46 10.816C109.959 11.168 110.311 11.5787 110.516 12.048C110.751 12.5173 110.824 12.972 110.736 13.412C110.677 13.852 110.487 14.2627 110.164 14.644C109.841 14.996 109.387 15.26 108.8 15.436ZM114.855 25.292C114.855 24.6173 114.84 23.8987 114.811 23.136C114.811 22.3733 114.943 21.684 115.207 21.068C115.441 20.5107 115.823 20.1147 116.351 19.88C116.908 19.616 117.451 19.5573 117.979 19.704C118.507 19.792 118.917 19.9533 119.211 20.188C119.504 20.4227 119.709 20.7013 119.827 21.024C119.973 21.3173 120.061 21.6693 120.091 22.08C120.12 22.4613 120.149 22.8427 120.179 23.224C120.472 22.696 120.839 22.2707 121.279 21.948C121.719 21.6253 122.173 21.3613 122.643 21.156C123.112 20.9507 123.552 20.804 123.963 20.716C124.403 20.628 124.74 20.584 124.975 20.584C126.089 20.584 127.189 20.8333 128.275 21.332C129.389 21.8013 130.313 22.476 131.047 23.356C131.457 23.884 131.765 24.4413 131.971 25.028C132.205 25.5853 132.367 26.172 132.455 26.788C132.572 27.404 132.645 28.0347 132.675 28.68C132.704 29.296 132.733 29.9267 132.763 30.572C132.909 32.4493 132.909 34.312 132.763 36.16C132.733 36.5413 132.719 36.9813 132.719 37.48C132.719 37.9787 132.675 38.4773 132.587 38.976C132.528 39.4453 132.396 39.8707 132.191 40.252C132.015 40.604 131.707 40.824 131.267 40.912C130.651 41.0587 130.137 41.088 129.727 41C129.345 40.9413 129.037 40.8093 128.803 40.604C128.568 40.3987 128.392 40.1347 128.275 39.812C128.157 39.4893 128.055 39.1227 127.967 38.712C127.908 38.3893 127.849 38.0227 127.791 37.612C127.761 37.172 127.732 36.732 127.703 36.292C127.703 35.852 127.688 35.4267 127.659 35.016C127.659 34.576 127.659 34.18 127.659 33.828C127.659 33.2707 127.644 32.6547 127.615 31.98C127.585 31.3053 127.585 30.6747 127.615 30.088C127.615 28.7093 127.248 27.668 126.515 26.964C125.811 26.2307 124.843 25.9227 123.611 26.04C122.672 26.1573 121.851 26.5387 121.147 27.184C120.443 27.8 120.105 28.6067 120.135 29.604C120.135 29.9853 120.135 30.3373 120.135 30.66C120.135 30.9827 120.12 31.3053 120.091 31.628C120.091 31.9507 120.091 32.3027 120.091 32.684C120.091 33.0653 120.091 33.4907 120.091 33.96C120.091 34.928 120.091 35.9547 120.091 37.04C120.091 38.096 119.959 38.9613 119.695 39.636C119.46 40.34 119.064 40.824 118.507 41.088C117.949 41.352 117.289 41.2787 116.527 40.868C116.204 40.692 115.94 40.4573 115.735 40.164C115.559 39.8413 115.412 39.504 115.295 39.152C115.207 38.8 115.148 38.448 115.119 38.096C115.089 37.7147 115.06 37.3627 115.031 37.04C114.943 36.072 114.884 35.1773 114.855 34.356C114.855 33.5053 114.855 32.596 114.855 31.628V25.292ZM150.152 10.244C150.709 10.0973 151.193 10.0827 151.604 10.2C152.044 10.288 152.411 10.4787 152.704 10.772C153.027 11.0653 153.261 11.432 153.408 11.872C153.584 12.312 153.672 12.796 153.672 13.324C153.701 14.7907 153.701 15.9347 153.672 16.756C153.672 17.5773 153.672 18.296 153.672 18.912V32.42C153.672 34.004 153.672 35.324 153.672 36.38C153.672 37.436 153.613 38.3013 153.496 38.976C153.408 39.6213 153.232 40.1053 152.968 40.428C152.733 40.7507 152.367 40.9707 151.868 41.088C151.369 41.2347 150.709 41.308 149.888 41.308C149.096 41.308 148.099 41.308 146.896 41.308C143.728 41.308 141.22 40.56 139.372 39.064C137.553 37.568 136.585 35.192 136.468 31.936C136.409 30.528 136.585 29.2373 136.996 28.064C137.407 26.8907 138.008 25.8933 138.8 25.072C139.621 24.2213 140.619 23.576 141.792 23.136C142.995 22.6667 144.359 22.4467 145.884 22.476H148.304V14.6C148.304 14.1307 148.304 13.676 148.304 13.236C148.304 12.7667 148.348 12.3413 148.436 11.96C148.524 11.5493 148.7 11.1973 148.964 10.904C149.228 10.6107 149.624 10.3907 150.152 10.244ZM142.496 34.664C143.112 35.5147 144.227 35.984 145.84 36.072C146.163 36.1013 146.471 36.116 146.764 36.116C147.057 36.0867 147.321 36.0427 147.556 35.984C147.82 35.9547 148.069 35.9107 148.304 35.852V27.712C147.277 27.536 146.339 27.4333 145.488 27.404C144.667 27.3453 143.845 27.6387 143.024 28.284C142.584 28.636 142.247 29.0907 142.012 29.648C141.777 30.176 141.645 30.748 141.616 31.364C141.587 31.9507 141.645 32.5373 141.792 33.124C141.939 33.7107 142.173 34.224 142.496 34.664Z" fill="#59B4D0"/>
<path d="M168.407 8.38655C166.764 8.64598 164.516 9.51075 163.478 10.1161C160.538 12.0186 157.77 17.5531 158.289 20.7527C158.462 22.3958 158.03 24.3847 157.079 25.9413C155.436 28.7086 155.695 30.8705 157.684 30.8705C158.376 30.8705 158.895 31.7353 158.895 32.9459C158.895 33.9837 159.327 36.1456 159.846 37.7022C160.711 40.21 161.057 40.3829 164.948 40.3829C167.283 40.3829 169.791 40.1235 170.569 39.8641C172.126 39.2587 174.46 35.1943 174.46 33.0324C174.46 30.784 172.99 31.5623 171.953 34.3296C171.088 37.0103 168.234 38.6534 164.602 38.6534C163.132 38.6534 162.44 37.9616 161.662 35.5402C161.143 33.8107 160.97 31.9082 161.229 31.2164C161.489 30.5246 161.316 30.0057 160.97 30.0057C160.538 30.0057 159.673 29.6598 158.981 29.2274C158.03 28.6221 158.116 28.1032 159.327 26.2008C160.278 24.8171 160.624 23.0011 160.365 21.531C159.759 18.1584 161.835 13.9211 165.121 11.8456C170.655 8.47303 180.773 10.3755 184.319 15.4776C187.173 19.542 185.011 27.5844 180.514 30.0057C178.871 30.8705 178.698 31.4758 179.217 34.589C179.563 36.578 180.254 38.9128 180.687 39.8641C182.157 42.5449 183.022 40.1235 181.984 36.3185C181.033 32.773 181.119 32.5136 183.8 29.9193C186.913 26.8926 188.643 21.7904 187.778 18.1584C186.221 11.4997 176.882 6.74349 168.407 8.38655Z" fill="#59B4D0"/>
<path d="M168.839 11.7591C168.58 12.278 167.629 12.7104 166.851 12.7104C165.034 12.7104 162.094 17.899 162.527 20.1474C162.7 21.0986 164.083 22.2228 165.813 22.7417C167.369 23.2605 169.704 24.6442 170.915 25.8549C172.212 27.0655 173.855 28.2762 174.72 28.5356C175.498 28.8815 176.19 29.9193 176.19 30.8705C176.19 31.8217 176.622 32.6 177.141 32.6C177.833 32.6 178.006 31.5623 177.66 29.5734C177.228 26.979 177.401 26.5467 178.784 26.5467C181.206 26.5467 183.8 20.8392 182.416 18.6773C181.811 17.8125 181.379 16.5154 181.379 15.8235C181.379 13.3157 170.137 9.6837 168.839 11.7591Z" fill="#59B4D0"/>
</svg>
