<svg width="36" height="36" viewBox="0 0 36 36" fill="none" xmlns="http://www.w3.org/2000/svg">
<path d="M17.9953 0.5C13.2425 0.5 12.6461 0.520782 10.7794 0.605731C8.91634 0.691044 7.64466 0.985995 6.53194 1.41876C5.38094 1.86574 4.40458 2.46367 3.43186 3.43675C2.45841 4.40947 1.86049 5.38583 1.41205 6.53647C0.978188 7.64955 0.682873 8.9216 0.599018 10.7839C0.515527 12.6506 0.493652 13.2474 0.493652 18.0002C0.493652 22.7529 0.514799 23.3476 0.599383 25.2143C0.685061 27.0773 0.980012 28.349 1.41241 29.4617C1.85976 30.6127 2.45768 31.5891 3.43077 32.5618C4.40312 33.5352 5.37948 34.1346 6.52976 34.5816C7.64321 35.0144 8.91525 35.3093 10.7779 35.3946C12.6446 35.4796 13.2407 35.5004 17.9931 35.5004C22.7462 35.5004 23.3409 35.4796 25.2076 35.3946C27.0706 35.3093 28.3437 35.0144 29.4572 34.5816C30.6078 34.1346 31.5827 33.5352 32.5551 32.5618C33.5285 31.5891 34.1264 30.6127 34.5749 29.4621C35.0051 28.349 35.3004 27.0769 35.3879 25.2146C35.4718 23.3479 35.4937 22.7529 35.4937 18.0002C35.4937 13.2474 35.4718 12.651 35.3879 10.7843C35.3004 8.92123 35.0051 7.64955 34.5749 6.53683C34.1264 5.38583 33.5285 4.40947 32.5551 3.43675C31.5816 2.4633 30.6082 1.86538 29.4561 1.41876C28.3405 0.985995 27.068 0.691044 25.205 0.605731C23.3383 0.520782 22.744 0.5 17.9898 0.5H17.9953ZM16.4254 3.65368C16.8913 3.65295 17.4112 3.65368 17.9953 3.65368C22.6678 3.65368 23.2216 3.67045 25.0668 3.7543C26.7731 3.83233 27.6991 4.11743 28.316 4.35697C29.1327 4.67416 29.7149 5.05333 30.3271 5.66583C30.9396 6.27834 31.3188 6.86168 31.6367 7.67836C31.8762 8.29451 32.1617 9.22056 32.2393 10.9268C32.3232 12.7716 32.3414 13.3258 32.3414 17.9962C32.3414 22.6665 32.3232 23.2207 32.2393 25.0655C32.1613 26.7718 31.8762 27.6978 31.6367 28.314C31.3195 29.1307 30.9396 29.7122 30.3271 30.3243C29.7146 30.9368 29.1331 31.316 28.316 31.6332C27.6999 31.8738 26.7731 32.1582 25.0668 32.2362C23.222 32.3201 22.6678 32.3383 17.9953 32.3383C13.3224 32.3383 12.7686 32.3201 10.9238 32.2362C9.21749 32.1575 8.29144 31.8724 7.6742 31.6328C6.85752 31.3156 6.27418 30.9365 5.66167 30.324C5.04917 29.7114 4.67 29.1296 4.35208 28.3125C4.11254 27.6964 3.82707 26.7703 3.74942 25.0641C3.66556 23.2192 3.64879 22.6651 3.64879 17.9918C3.64879 13.3185 3.66556 12.7673 3.74942 10.9225C3.82744 9.21618 4.11254 8.29013 4.35208 7.67325C4.66927 6.85658 5.04917 6.27324 5.66167 5.66073C6.27418 5.04822 6.85752 4.66905 7.6742 4.35113C8.29108 4.11051 9.21749 3.82613 10.9238 3.74774C12.5382 3.67482 13.1638 3.65295 16.4254 3.6493V3.65368ZM27.3367 6.55944C26.1774 6.55944 25.2367 7.49898 25.2367 8.65873C25.2367 9.81812 26.1774 10.7588 27.3367 10.7588C28.4961 10.7588 29.4368 9.81812 29.4368 8.65873C29.4368 7.49934 28.4961 6.55871 27.3367 6.55871V6.55944ZM17.9953 9.01311C13.0322 9.01311 9.00822 13.0371 9.00822 18.0002C9.00822 22.9633 13.0322 26.9854 17.9953 26.9854C22.9584 26.9854 26.9809 22.9633 26.9809 18.0002C26.9809 13.0371 22.9581 9.01311 17.9949 9.01311H17.9953ZM17.9953 12.1668C21.2168 12.1668 23.8287 14.7783 23.8287 18.0002C23.8287 21.2217 21.2168 23.8336 17.9953 23.8336C14.7734 23.8336 12.1619 21.2217 12.1619 18.0002C12.1619 14.7783 14.7734 12.1668 17.9953 12.1668Z" fill="#131313"/>
</svg>
