<svg width="35" height="35" viewBox="0 0 35 35" fill="none" xmlns="http://www.w3.org/2000/svg">
<path d="M29.7529 5.0891C26.4849 1.80447 22.1275 0 17.4875 0C7.93299 0 0.149679 7.78332 0.141363 17.3378C0.141363 20.398 0.939651 23.3749 2.45307 26.0109L0 35L9.19694 32.5885C11.7332 33.9689 14.5854 34.7006 17.4875 34.7006H17.4958C27.0503 34.7006 34.8336 26.9173 34.8419 17.3545C34.8336 12.7227 33.0292 8.36541 29.7529 5.0891ZM17.4875 31.7653C14.8931 31.7653 12.3568 31.0668 10.1449 29.7529L9.62103 29.4369L4.16606 30.8672L5.62128 25.5453L5.28034 24.9964C3.83344 22.7014 3.07673 20.0487 3.07673 17.3295C3.07673 9.39653 9.54619 2.92706 17.4958 2.92706C21.3459 2.92706 24.9631 4.43217 27.6906 7.15134C30.4098 9.87883 31.9066 13.4961 31.9066 17.3462C31.8983 25.3041 25.4288 31.7653 17.4875 31.7653ZM25.3955 20.9717C24.9631 20.7555 22.8344 19.7078 22.4352 19.5581C22.0361 19.4167 21.745 19.3419 21.4623 19.7743C21.1713 20.2067 20.3397 21.1879 20.0902 21.4707C19.8408 21.7617 19.583 21.795 19.1506 21.5788C18.7182 21.3626 17.3212 20.9052 15.6664 19.425C14.3775 18.2775 13.5127 16.8555 13.2549 16.4231C13.0054 15.9907 13.23 15.7579 13.4462 15.5417C13.6374 15.3504 13.8786 15.0345 14.0948 14.785C14.311 14.5355 14.3858 14.3526 14.5272 14.0615C14.6685 13.7705 14.602 13.521 14.4939 13.3048C14.3858 13.0886 13.521 10.9515 13.1551 10.0867C12.8059 9.23854 12.4483 9.35495 12.1822 9.34664C11.9327 9.33001 11.6417 9.33001 11.3507 9.33001C11.0596 9.33001 10.5939 9.43811 10.1948 9.87052C9.79566 10.3029 8.68138 11.3507 8.68138 13.4878C8.68138 15.6249 10.2364 17.6788 10.4526 17.9698C10.6688 18.2609 13.5044 22.6348 17.8534 24.5141C18.8845 24.9632 19.6911 25.2293 20.3231 25.4288C21.3625 25.7615 22.3022 25.7116 23.0506 25.6035C23.8821 25.4787 25.6117 24.5557 25.9776 23.5412C26.3352 22.5267 26.3352 21.6619 26.2271 21.479C26.119 21.296 25.8279 21.1879 25.3955 20.9717Z" fill="white"/>
</svg>
