<svg width="36" height="36" viewBox="0 0 36 36" fill="none" xmlns="http://www.w3.org/2000/svg">
<path d="M17.9937 0.5C8.3249 0.5 0.493652 8.33125 0.493652 18C0.493652 25.7437 5.50303 32.2844 12.4593 34.6031C13.3343 34.7562 13.6624 34.2313 13.6624 33.7719C13.6624 33.3563 13.6405 31.9781 13.6405 30.5125C9.24365 31.3219 8.10615 29.4406 7.75615 28.4562C7.55928 27.9531 6.70615 26.4 5.9624 25.9844C5.3499 25.6562 4.4749 24.8469 5.94053 24.825C7.31865 24.8031 8.30303 26.0938 8.63115 26.6187C10.2062 29.2656 12.7218 28.5219 13.728 28.0625C13.8812 26.925 14.3405 26.1594 14.8437 25.7219C10.9499 25.2844 6.88115 23.775 6.88115 17.0812C6.88115 15.1781 7.55928 13.6031 8.6749 12.3781C8.4999 11.9406 7.8874 10.1469 8.8499 7.74062C8.8499 7.74062 10.3155 7.28125 13.6624 9.53438C15.0624 9.14062 16.5499 8.94375 18.0374 8.94375C19.5249 8.94375 21.0124 9.14062 22.4124 9.53438C25.7593 7.25938 27.2249 7.74062 27.2249 7.74062C28.1874 10.1469 27.5749 11.9406 27.3999 12.3781C28.5155 13.6031 29.1937 15.1562 29.1937 17.0812C29.1937 23.7969 25.103 25.2844 21.2093 25.7219C21.8437 26.2687 22.3905 27.3188 22.3905 28.9594C22.3905 31.3 22.3687 33.1813 22.3687 33.7719C22.3687 34.2313 22.6968 34.7781 23.5718 34.6031C27.0458 33.4303 30.0647 31.1976 32.2033 28.2192C34.3419 25.2408 35.4927 21.6667 35.4937 18C35.4937 8.33125 27.6624 0.5 17.9937 0.5Z" fill="#131313"/>
</svg>
