<svg width="36" height="36" viewBox="0 0 36 36" fill="none" xmlns="http://www.w3.org/2000/svg">
<path d="M0.493652 3.00718C0.493652 1.62287 1.6443 0.5 3.06378 0.5H32.9235C34.3429 0.5 35.4937 1.62288 35.4937 3.00718V32.9928C35.4937 34.3776 34.3429 35.5 32.9235 35.5L3.06378 35.5C1.6443 35.5 0.493652 34.3776 0.493652 32.9928V3.00718ZM11.3073 29.7986V13.9942H6.05419V29.7986H11.3073ZM8.68072 11.8363C10.5126 11.8363 11.6528 10.6227 11.6528 9.10607C11.6186 7.55527 10.5126 6.37534 8.71547 6.37534C6.91854 6.37534 5.74365 7.55527 5.74365 9.10607C5.74365 10.6227 6.88359 11.8363 8.64648 11.8363H8.68072ZM19.4186 29.7986V20.9727C19.4186 20.5004 19.4527 20.0285 19.5914 19.6909C19.9712 18.7471 20.8355 17.7697 22.2867 17.7697C24.1876 17.7697 24.948 19.219 24.948 21.3436V29.7986H30.2006V20.7366C30.2006 15.8821 27.609 13.6233 24.1529 13.6233C21.3663 13.6233 20.1168 15.1549 19.4187 16.2318V16.2862H19.3836C19.3952 16.2682 19.4069 16.2501 19.4187 16.2318V13.9942H14.1657C14.2346 15.4771 14.1657 29.7986 14.1657 29.7986H19.4186Z" fill="#131313"/>
</svg>
