<svg width="36" height="36" viewBox="0 0 36 36" fill="none" xmlns="http://www.w3.org/2000/svg">
<path d="M30.2465 5.5891C26.9785 2.30447 22.6212 0.5 17.9811 0.5C8.42664 0.5 0.643331 8.28332 0.635016 17.8378C0.635016 20.898 1.4333 23.8749 2.94672 26.5109L0.493652 35.5L9.69059 33.0885C12.2268 34.4689 15.079 35.2006 17.9811 35.2006H17.9895C27.544 35.2006 35.3273 27.4173 35.3356 17.8545C35.3273 13.2227 33.5228 8.86541 30.2465 5.5891ZM17.9811 32.2653C15.3867 32.2653 12.8505 31.5668 10.6386 30.2529L10.1147 29.9369L4.65972 31.3672L6.11493 26.0453L5.77399 25.4964C4.3271 23.2014 3.57039 20.5487 3.57039 17.8295C3.57039 9.89653 10.0398 3.42706 17.9895 3.42706C21.8395 3.42706 25.4568 4.93217 28.1843 7.65134C30.9034 10.3788 32.4002 13.9961 32.4002 17.8462C32.3919 25.8041 25.9224 32.2653 17.9811 32.2653ZM25.8892 21.4717C25.4568 21.2555 23.328 20.2078 22.9289 20.0581C22.5297 19.9167 22.2387 19.8419 21.956 20.2743C21.6649 20.7067 20.8334 21.6879 20.5839 21.9707C20.3344 22.2617 20.0767 22.295 19.6442 22.0788C19.2118 21.8626 17.8148 21.4052 16.1601 19.925C14.8711 18.7775 14.0063 17.3555 13.7486 16.9231C13.4991 16.4907 13.7236 16.2579 13.9398 16.0417C14.1311 15.8504 14.3722 15.5345 14.5884 15.285C14.8046 15.0355 14.8795 14.8526 15.0208 14.5615C15.1622 14.2705 15.0957 14.021 14.9876 13.8048C14.8795 13.5886 14.0147 11.4515 13.6488 10.5867C13.2995 9.73854 12.942 9.85495 12.6759 9.84664C12.4264 9.83001 12.1354 9.83001 11.8443 9.83001C11.5533 9.83001 11.0876 9.93811 10.6885 10.3705C10.2893 10.8029 9.17503 11.8507 9.17503 13.9878C9.17503 16.1249 10.73 18.1788 10.9462 18.4698C11.1624 18.7609 13.998 23.1348 18.347 25.0141C19.3781 25.4632 20.1848 25.7293 20.8167 25.9288C21.8562 26.2615 22.7958 26.2116 23.5442 26.1035C24.3758 25.9787 26.1054 25.0557 26.4713 24.0412C26.8288 23.0267 26.8288 22.1619 26.7207 21.979C26.6126 21.796 26.3216 21.6879 25.8892 21.4717Z" fill="#131313"/>
</svg>
